<svg id="visual" viewBox="0 0 900 600" width="900" height="600" xmlns="http://www.w3.org/2000/svg" xmlns:xlink="http://www.w3.org/1999/xlink" version="1.1"><path d="M565 600L561.3 585.7C557.7 571.3 550.3 542.7 552.3 514.2C554.3 485.7 565.7 457.3 578.7 428.8C591.7 400.3 606.3 371.7 597.8 343C589.3 314.3 557.7 285.7 556.5 257C555.3 228.3 584.7 199.7 585.3 171.2C586 142.7 558 114.3 555.5 85.8C553 57.3 576 28.7 587.5 14.3L599 0L900 0L900 14.3C900 28.7 900 57.3 900 85.8C900 114.3 900 142.7 900 171.2C900 199.7 900 228.3 900 257C900 285.7 900 314.3 900 343C900 371.7 900 400.3 900 428.8C900 457.3 900 485.7 900 514.2C900 542.7 900 571.3 900 585.7L900 600Z" fill="#cde8e5"></path><path d="M610 600L625 585.7C640 571.3 670 542.7 680.7 514.2C691.3 485.7 682.7 457.3 682.5 428.8C682.3 400.3 690.7 371.7 679.8 343C669 314.3 639 285.7 631.3 257C623.7 228.3 638.3 199.7 637.7 171.2C637 142.7 621 114.3 629.5 85.8C638 57.3 671 28.7 687.5 14.3L704 0L900 0L900 14.3C900 28.7 900 57.3 900 85.8C900 114.3 900 142.7 900 171.2C900 199.7 900 228.3 900 257C900 285.7 900 314.3 900 343C900 371.7 900 400.3 900 428.8C900 457.3 900 485.7 900 514.2C900 542.7 900 571.3 900 585.7L900 600Z" fill="#b9dad8"></path><path d="M747 600L737 585.7C727 571.3 707 542.7 701.3 514.2C695.7 485.7 704.3 457.3 715.8 428.8C727.3 400.3 741.7 371.7 737 343C732.3 314.3 708.7 285.7 710.7 257C712.7 228.3 740.3 199.7 741.8 171.2C743.3 142.7 718.7 114.3 708.2 85.8C697.7 57.3 701.3 28.7 703.2 14.3L705 0L900 0L900 14.3C900 28.7 900 57.3 900 85.8C900 114.3 900 142.7 900 171.2C900 199.7 900 228.3 900 257C900 285.7 900 314.3 900 343C900 371.7 900 400.3 900 428.8C900 457.3 900 485.7 900 514.2C900 542.7 900 571.3 900 585.7L900 600Z" fill="#a4cdcb"></path><path d="M740 600L739 585.7C738 571.3 736 542.7 741.2 514.2C746.3 485.7 758.7 457.3 768 428.8C777.3 400.3 783.7 371.7 784.7 343C785.7 314.3 781.3 285.7 774.7 257C768 228.3 759 199.7 757.5 171.2C756 142.7 762 114.3 758.3 85.8C754.7 57.3 741.3 28.7 734.7 14.3L728 0L900 0L900 14.3C900 28.7 900 57.3 900 85.8C900 114.3 900 142.7 900 171.2C900 199.7 900 228.3 900 257C900 285.7 900 314.3 900 343C900 371.7 900 400.3 900 428.8C900 457.3 900 485.7 900 514.2C900 542.7 900 571.3 900 585.7L900 600Z" fill="#8fbfbe"></path><path d="M839 600L841.5 585.7C844 571.3 849 542.7 846.8 514.2C844.7 485.7 835.3 457.3 826.2 428.8C817 400.3 808 371.7 802 343C796 314.3 793 285.7 791.5 257C790 228.3 790 199.7 791.3 171.2C792.7 142.7 795.3 114.3 800.5 85.8C805.7 57.3 813.3 28.7 817.2 14.3L821 0L900 0L900 14.3C900 28.7 900 57.3 900 85.8C900 114.3 900 142.7 900 171.2C900 199.7 900 228.3 900 257C900 285.7 900 314.3 900 343C900 371.7 900 400.3 900 428.8C900 457.3 900 485.7 900 514.2C900 542.7 900 571.3 900 585.7L900 600Z" fill="#7ab2b2"></path></svg>